<?xml version="1.0" encoding="UTF-8"?>
<!DOCTYPE svg PUBLIC "-//W3C//DTD SVG 1.1//EN" "http://www.w3.org/Graphics/SVG/1.1/DTD/svg11.dtd">
<!-- Creator: CorelDRAW -->
<svg xmlns="http://www.w3.org/2000/svg" xml:space="preserve" width="297mm" height="210mm" version="1.1" style="shape-rendering:geometricPrecision; text-rendering:geometricPrecision; image-rendering:optimizeQuality; fill-rule:evenodd; clip-rule:evenodd"
viewBox="0 0 29700 21000"
 xmlns:xlink="http://www.w3.org/1999/xlink"
 xmlns:xodm="http://www.corel.com/coreldraw/odm/2003">
 <defs>
  <style type="text/css">
   <![CDATA[
    .str0 {stroke:black;stroke-width:200;stroke-miterlimit:22.9256}
    .fil0 {fill:black}
   ]]>
  </style>
 </defs>
 <g id="Слой_x0020_1">
  <metadata id="CorelCorpID_0Corel-Layer"/>
  <image id="_9c97df0d-6227-41cf-a52a-57e02ea79825.jpg" x="-13951.02" y="-1563.3" width="12736.58" height="11028.3" xlink:href="logo_Images\logo_ImgID1.png"/>
  <path class="fil0 str0" d="M5547.88 16223.41c38.57,-1168.76 74.41,-9565.75 79.01,-9980.62l8326.49 11.87c-7.33,2870.59 -31.5,6890.31 -31.06,9834.14 601.71,-599.35 8841.05,-8686.94 9474.93,-9386.6l-93.79 9531.7 965.89 -9.87c13.92,-655.94 6.03,-11099.62 -9.75,-11710.9 -391.02,417.29 -8925.77,8878.69 -9320.52,9239.52 15.84,-3000.79 -5.77,-5794.67 -5.28,-8559.36 -561.7,13.54 -9435.49,7.77 -10341.38,19.07 -38.76,447.91 -20.37,10409.52 -7.76,11023.78l963.22 -12.73z"/>
 </g>
</svg>
